<svg width="557" height="268" viewBox="0 0 557 268" fill="none" xmlns="http://www.w3.org/2000/svg">
<mask id="path-1-outside-1_123_507" maskUnits="userSpaceOnUse" x="0" y="0" width="557" height="268" fill="black">
<rect fill="white" width="557" height="268"/>
<path fill-rule="evenodd" clip-rule="evenodd" d="M2 3L113.806 76.4427L229.517 129.708C229.681 129.78 229.837 129.852 229.985 129.924L230.142 130L259.295 161.367L249.88 174.176V180.7L245.767 179.771L238.338 189.879H241.833C244.068 189.879 245.968 190.626 247.533 192.12C249.098 193.615 249.88 195.429 249.88 197.564V228.516C249.88 230.651 249.098 232.465 247.533 233.959C245.968 235.454 244.068 236.201 241.833 236.201H225.126L229.328 245.388L214.507 239.215L218.842 260.277L206.355 248.142L200.928 236.841V239.588L208.034 265.236L206.39 266L196.146 253.058L184.242 230.884L160.535 238.564L159.55 237.12L169.536 226.746L158.57 233.597L127.826 240.569L127.088 238.967L148.586 225.039L128.671 226.722H98.9072L47.5095 209.718L75.2657 204.813L34.6705 183.068L60.2379 173.897L50.734 173.191L11.5214 136.142L45.9777 143.217L22.7499 111.265L10.4683 58.5501L2 3ZM214.803 236.053C215.334 236.151 215.886 236.201 216.461 236.201H223.093L225.72 241.945L214.399 237.23L214.803 236.053ZM208.414 223.105V228.516C208.414 230.651 209.196 232.465 210.761 233.959C211.452 234.62 212.209 235.134 213.032 235.503L212.29 237.665L215.816 254.798L207.912 247.117L200.928 232.573V220.002L208.414 223.105ZM219.692 224.943C219.103 224.219 218.808 223.382 218.808 222.432V214.214L208.414 211.973V221.166L141.409 193.383L125.163 177.102L89.3308 153.103L113.357 150.144L140.599 152.394L184.274 174.109L184.289 174.117L208.414 185.59V192.12C208.414 194.255 209.196 196.07 210.761 197.564C212.325 199.058 214.226 199.805 216.461 199.805H231.69V224.943H219.692ZM233.553 226.275H235.462C236.579 226.275 237.511 225.919 238.256 225.207C239.076 224.425 239.485 223.5 239.485 222.432V203.648C239.485 202.58 239.076 201.691 238.256 200.979C237.511 200.197 236.579 199.805 235.462 199.805H233.553V226.275ZM236.062 189.879H235.183L238.748 176.023L234.005 171.415H235.462C236.579 171.415 237.511 171.806 238.256 172.589C239.076 173.3 239.485 174.19 239.485 175.257V178.352L243.816 179.33L236.062 189.879ZM249.88 171.079L256.924 161.496L228.99 131.44L228.715 131.314C226.708 130.438 223.201 129.495 217.819 128.34C212.068 127.105 204.284 125.646 194.11 123.763C193.63 123.674 193.144 123.584 192.653 123.493C191.828 123.34 190.988 123.185 190.132 123.027C170.665 119.427 143.313 114.37 106.094 106.688L131.753 125.062L154.532 142.772L217.797 155.663L223.791 161.488H241.833C244.068 161.488 245.968 162.236 247.533 163.73C249.098 165.224 249.88 167.039 249.88 169.173V171.079ZM221.18 161.488L216.86 157.291L153.704 144.422L130.778 126.598L83.6594 118.596L141.315 150.744L185.119 172.524L185.134 172.532L208.414 183.602V169.173C208.414 167.039 209.196 165.224 210.761 163.73C212.325 162.236 214.226 161.488 216.461 161.488H221.18ZM231.393 171.415H222.72C221.677 171.415 220.745 171.806 219.926 172.589C219.181 173.3 218.808 174.19 218.808 175.257V186.037C218.808 187.104 219.181 188.029 219.926 188.812C220.745 189.523 221.677 189.879 222.72 189.879H233.265L236.691 176.562L231.393 171.415ZM48.6432 143.764L86.8692 151.612L113.318 148.355L136.817 150.296L78.2741 117.653L44.4299 105.693L13.3319 62.6502L24.4888 110.537L48.6432 143.764ZM12.2754 58.0553L4.45771 6.77349L112.868 77.9857L218.71 126.708L218.228 126.604C212.445 125.362 204.631 123.898 194.465 122.016C193.319 121.804 192.143 121.587 190.937 121.364L190.486 121.28C170.301 117.548 141.654 112.252 102.32 104.087L101.564 105.668L127.49 124.233L78.9187 115.984L45.6287 104.22L12.2754 58.0553ZM198.171 218.858L184.941 213.373L163.388 235.761L184.26 229L198.171 218.858ZM185.888 230.051L197.73 252.109L205.022 261.322L199.065 239.819V220.444L185.888 230.051ZM183.07 212.597L168.654 206.619L152.707 224.519L132.334 237.718L157.823 231.938L171.881 223.155L183.07 212.597ZM166.868 205.879L152.236 199.812L131.13 216.716L104.887 224.943H128.589L151.617 222.997L166.868 205.879ZM99.072 224.894L54.7833 210.242L140.754 195.051L150.326 199.02L130.208 215.133L99.072 224.894ZM138.998 193.546L124.124 178.639L64.6269 174.223L39.0757 183.388L77.8175 204.141L138.998 193.546ZM121.23 176.64L51.5589 171.468L17.3658 139.162L86.4494 153.346L121.23 176.64Z"/>
<path fill-rule="evenodd" clip-rule="evenodd" d="M555 3L443.194 76.4427L327.483 129.708C327.319 129.78 327.163 129.852 327.015 129.924L326.858 130L297.705 161.367L297.716 161.382H289.803V236.201H323.446C325.681 236.201 327.581 235.454 329.146 233.959C329.749 233.384 330.235 232.755 330.606 232.074L332.499 234.834L327.672 245.388L342.493 239.215L338.158 260.277L350.645 248.142L356.072 236.841V239.588L348.966 265.236L350.61 266L360.854 253.058L372.758 230.884L396.465 238.564L397.45 237.12L387.464 226.746L398.43 233.597L429.174 240.569L429.912 238.967L408.414 225.039L428.329 226.722H458.093L509.491 209.718L481.734 204.813L522.329 183.068L496.762 173.897L506.266 173.191L545.479 136.142L511.022 143.217L534.25 111.265L546.532 58.5501L555 3ZM329.669 192.599C328.763 191.507 327.658 190.743 326.352 190.306V170.691L340.14 157.291L403.296 144.422L426.222 126.598L473.341 118.596L415.685 150.744L371.881 172.524L371.866 172.532L329.669 192.599ZM331.493 224.943V197.457C331.493 196.281 331.22 195.165 330.673 194.109L372.726 174.11L416.401 152.394L443.643 150.144L467.669 153.103L431.837 177.102L415.591 193.383L339.478 224.943H331.493ZM331.359 229.927C331.448 229.441 331.493 228.935 331.493 228.409V226.722H338.996L342.601 237.23L331.28 241.945L334.609 234.664L331.359 229.927ZM326.304 168.199C326.112 166.5 325.346 165.011 324.004 163.73C322.44 162.164 320.502 161.382 318.192 161.382H300.182L328.01 131.44L328.285 131.314C330.292 130.438 333.799 129.495 339.181 128.34C344.932 127.105 352.716 125.646 362.89 123.763L366.868 123.027C386.335 119.427 413.687 114.37 450.906 106.688L425.262 125.051L425.247 125.062L425.233 125.073L402.468 142.772L339.203 155.663L326.304 168.199ZM307.288 171.308H311.822C312.939 171.308 313.908 171.699 314.728 172.482C315.547 173.193 315.957 174.083 315.957 175.15V183.103L307.288 171.308ZM305.012 171.308L315.954 186.194C315.912 187.127 315.504 187.964 314.728 188.705C313.908 189.488 312.939 189.879 311.822 189.879H300.309V171.308H305.012ZM508.357 143.764L470.131 151.612L443.682 148.355L420.184 150.296L478.726 117.653L512.57 105.693L543.668 62.6502L532.511 110.537L508.357 143.764ZM544.725 58.0553L552.542 6.77349L444.132 77.9857L338.29 126.708L338.772 126.604C344.555 125.362 352.369 123.898 362.535 122.016C363.803 121.782 365.107 121.541 366.448 121.293L366.514 121.28C386.699 117.548 415.346 112.252 454.68 104.087L455.436 105.668L429.51 124.233L478.081 115.984L511.371 104.22L544.725 58.0553ZM340.821 226.325L356.072 220.002V232.573L349.088 247.117L341.184 254.798L344.71 237.665L340.821 226.325ZM358.83 218.858L372.059 213.373L393.612 235.761L372.74 229L358.83 218.858ZM371.112 230.051L359.27 252.109L351.978 261.322L357.935 239.819V220.444L371.112 230.051ZM373.931 212.597L388.346 206.619L404.293 224.519L424.666 237.718L399.177 231.938L385.119 223.155L373.931 212.597ZM390.132 205.879L404.764 199.812L425.87 216.716L452.113 224.943H428.411L405.383 222.997L390.132 205.879ZM457.928 224.894L502.217 210.242L416.246 195.051L406.674 199.02L426.792 215.133L457.928 224.894ZM418.002 193.546L432.876 178.639L492.373 174.223L517.924 183.388L479.183 204.141L418.002 193.546ZM435.77 176.64L505.441 171.468L539.634 139.162L470.551 153.346L435.77 176.64ZM317.186 226.275H300.309V199.698H317.186C318.23 199.698 319.124 200.09 319.869 200.872C320.689 201.655 321.098 202.545 321.098 203.541V222.326C321.098 223.464 320.689 224.425 319.869 225.207C319.124 225.919 318.23 226.275 317.186 226.275Z"/>
<path fill-rule="evenodd" clip-rule="evenodd" d="M259.18 235.454C259.702 235.952 260.348 236.201 261.118 236.201H266.185C266.93 236.201 267.563 235.952 268.085 235.454C268.606 234.932 268.867 234.315 268.867 233.604V221.009C268.867 220.298 268.606 219.693 268.085 219.195C267.563 218.673 266.93 218.412 266.185 218.412H261.118C260.348 218.412 259.702 218.673 259.18 219.195C258.659 219.693 258.398 220.298 258.398 221.009V233.604C258.398 234.315 258.659 234.932 259.18 235.454ZM264.024 232.856H263.241C262.869 232.856 262.546 232.738 262.273 232.501C262.024 232.24 261.9 231.931 261.9 231.576V223.037C261.9 222.681 262.024 222.385 262.273 222.148C262.546 221.887 262.869 221.756 263.241 221.756H264.024C264.396 221.756 264.719 221.887 264.992 222.148C265.266 222.385 265.402 222.681 265.402 223.037V231.576C265.402 231.931 265.266 232.24 264.992 232.501C264.719 232.738 264.396 232.856 264.024 232.856Z"/>
<path d="M271.162 212.15V236.201H274.626V221.792H278.24L279.023 218.448H274.626V214.178C274.626 213.846 274.751 213.562 274.999 213.325C275.272 213.064 275.595 212.933 275.968 212.933H276.787C277.16 212.933 277.47 213.064 277.719 213.325C277.992 213.562 278.129 213.846 278.129 214.178V215.281L281.593 215.993V212.15C281.593 211.439 281.333 210.834 280.811 210.336C280.289 209.838 279.656 209.589 278.911 209.589H273.807C273.087 209.589 272.466 209.838 271.944 210.336C271.422 210.834 271.162 211.439 271.162 212.15Z"/>
</mask>
<path fill-rule="evenodd" clip-rule="evenodd" d="M2 3L113.806 76.4427L229.517 129.708C229.681 129.78 229.837 129.852 229.985 129.924L230.142 130L259.295 161.367L249.88 174.176V180.7L245.767 179.771L238.338 189.879H241.833C244.068 189.879 245.968 190.626 247.533 192.12C249.098 193.615 249.88 195.429 249.88 197.564V228.516C249.88 230.651 249.098 232.465 247.533 233.959C245.968 235.454 244.068 236.201 241.833 236.201H225.126L229.328 245.388L214.507 239.215L218.842 260.277L206.355 248.142L200.928 236.841V239.588L208.034 265.236L206.39 266L196.146 253.058L184.242 230.884L160.535 238.564L159.55 237.12L169.536 226.746L158.57 233.597L127.826 240.569L127.088 238.967L148.586 225.039L128.671 226.722H98.9072L47.5095 209.718L75.2657 204.813L34.6705 183.068L60.2379 173.897L50.734 173.191L11.5214 136.142L45.9777 143.217L22.7499 111.265L10.4683 58.5501L2 3ZM214.803 236.053C215.334 236.151 215.886 236.201 216.461 236.201H223.093L225.72 241.945L214.399 237.23L214.803 236.053ZM208.414 223.105V228.516C208.414 230.651 209.196 232.465 210.761 233.959C211.452 234.62 212.209 235.134 213.032 235.503L212.29 237.665L215.816 254.798L207.912 247.117L200.928 232.573V220.002L208.414 223.105ZM219.692 224.943C219.103 224.219 218.808 223.382 218.808 222.432V214.214L208.414 211.973V221.166L141.409 193.383L125.163 177.102L89.3308 153.103L113.357 150.144L140.599 152.394L184.274 174.109L184.289 174.117L208.414 185.59V192.12C208.414 194.255 209.196 196.07 210.761 197.564C212.325 199.058 214.226 199.805 216.461 199.805H231.69V224.943H219.692ZM233.553 226.275H235.462C236.579 226.275 237.511 225.919 238.256 225.207C239.076 224.425 239.485 223.5 239.485 222.432V203.648C239.485 202.58 239.076 201.691 238.256 200.979C237.511 200.197 236.579 199.805 235.462 199.805H233.553V226.275ZM236.062 189.879H235.183L238.748 176.023L234.005 171.415H235.462C236.579 171.415 237.511 171.806 238.256 172.589C239.076 173.3 239.485 174.19 239.485 175.257V178.352L243.816 179.33L236.062 189.879ZM249.88 171.079L256.924 161.496L228.99 131.44L228.715 131.314C226.708 130.438 223.201 129.495 217.819 128.34C212.068 127.105 204.284 125.646 194.11 123.763C193.63 123.674 193.144 123.584 192.653 123.493C191.828 123.34 190.988 123.185 190.132 123.027C170.665 119.427 143.313 114.37 106.094 106.688L131.753 125.062L154.532 142.772L217.797 155.663L223.791 161.488H241.833C244.068 161.488 245.968 162.236 247.533 163.73C249.098 165.224 249.88 167.039 249.88 169.173V171.079ZM221.18 161.488L216.86 157.291L153.704 144.422L130.778 126.598L83.6594 118.596L141.315 150.744L185.119 172.524L185.134 172.532L208.414 183.602V169.173C208.414 167.039 209.196 165.224 210.761 163.73C212.325 162.236 214.226 161.488 216.461 161.488H221.18ZM231.393 171.415H222.72C221.677 171.415 220.745 171.806 219.926 172.589C219.181 173.3 218.808 174.19 218.808 175.257V186.037C218.808 187.104 219.181 188.029 219.926 188.812C220.745 189.523 221.677 189.879 222.72 189.879H233.265L236.691 176.562L231.393 171.415ZM48.6432 143.764L86.8692 151.612L113.318 148.355L136.817 150.296L78.2741 117.653L44.4299 105.693L13.3319 62.6502L24.4888 110.537L48.6432 143.764ZM12.2754 58.0553L4.45771 6.77349L112.868 77.9857L218.71 126.708L218.228 126.604C212.445 125.362 204.631 123.898 194.465 122.016C193.319 121.804 192.143 121.587 190.937 121.364L190.486 121.28C170.301 117.548 141.654 112.252 102.32 104.087L101.564 105.668L127.49 124.233L78.9187 115.984L45.6287 104.22L12.2754 58.0553ZM198.171 218.858L184.941 213.373L163.388 235.761L184.26 229L198.171 218.858ZM185.888 230.051L197.73 252.109L205.022 261.322L199.065 239.819V220.444L185.888 230.051ZM183.07 212.597L168.654 206.619L152.707 224.519L132.334 237.718L157.823 231.938L171.881 223.155L183.07 212.597ZM166.868 205.879L152.236 199.812L131.13 216.716L104.887 224.943H128.589L151.617 222.997L166.868 205.879ZM99.072 224.894L54.7833 210.242L140.754 195.051L150.326 199.02L130.208 215.133L99.072 224.894ZM138.998 193.546L124.124 178.639L64.6269 174.223L39.0757 183.388L77.8175 204.141L138.998 193.546ZM121.23 176.64L51.5589 171.468L17.3658 139.162L86.4494 153.346L121.23 176.64Z" fill="#053B50"/>
<path fill-rule="evenodd" clip-rule="evenodd" d="M555 3L443.194 76.4427L327.483 129.708C327.319 129.78 327.163 129.852 327.015 129.924L326.858 130L297.705 161.367L297.716 161.382H289.803V236.201H323.446C325.681 236.201 327.581 235.454 329.146 233.959C329.749 233.384 330.235 232.755 330.606 232.074L332.499 234.834L327.672 245.388L342.493 239.215L338.158 260.277L350.645 248.142L356.072 236.841V239.588L348.966 265.236L350.61 266L360.854 253.058L372.758 230.884L396.465 238.564L397.45 237.12L387.464 226.746L398.43 233.597L429.174 240.569L429.912 238.967L408.414 225.039L428.329 226.722H458.093L509.491 209.718L481.734 204.813L522.329 183.068L496.762 173.897L506.266 173.191L545.479 136.142L511.022 143.217L534.25 111.265L546.532 58.5501L555 3ZM329.669 192.599C328.763 191.507 327.658 190.743 326.352 190.306V170.691L340.14 157.291L403.296 144.422L426.222 126.598L473.341 118.596L415.685 150.744L371.881 172.524L371.866 172.532L329.669 192.599ZM331.493 224.943V197.457C331.493 196.281 331.22 195.165 330.673 194.109L372.726 174.11L416.401 152.394L443.643 150.144L467.669 153.103L431.837 177.102L415.591 193.383L339.478 224.943H331.493ZM331.359 229.927C331.448 229.441 331.493 228.935 331.493 228.409V226.722H338.996L342.601 237.23L331.28 241.945L334.609 234.664L331.359 229.927ZM326.304 168.199C326.112 166.5 325.346 165.011 324.004 163.73C322.44 162.164 320.502 161.382 318.192 161.382H300.182L328.01 131.44L328.285 131.314C330.292 130.438 333.799 129.495 339.181 128.34C344.932 127.105 352.716 125.646 362.89 123.763L366.868 123.027C386.335 119.427 413.687 114.37 450.906 106.688L425.262 125.051L425.247 125.062L425.233 125.073L402.468 142.772L339.203 155.663L326.304 168.199ZM307.288 171.308H311.822C312.939 171.308 313.908 171.699 314.728 172.482C315.547 173.193 315.957 174.083 315.957 175.15V183.103L307.288 171.308ZM305.012 171.308L315.954 186.194C315.912 187.127 315.504 187.964 314.728 188.705C313.908 189.488 312.939 189.879 311.822 189.879H300.309V171.308H305.012ZM508.357 143.764L470.131 151.612L443.682 148.355L420.184 150.296L478.726 117.653L512.57 105.693L543.668 62.6502L532.511 110.537L508.357 143.764ZM544.725 58.0553L552.542 6.77349L444.132 77.9857L338.29 126.708L338.772 126.604C344.555 125.362 352.369 123.898 362.535 122.016C363.803 121.782 365.107 121.541 366.448 121.293L366.514 121.28C386.699 117.548 415.346 112.252 454.68 104.087L455.436 105.668L429.51 124.233L478.081 115.984L511.371 104.22L544.725 58.0553ZM340.821 226.325L356.072 220.002V232.573L349.088 247.117L341.184 254.798L344.71 237.665L340.821 226.325ZM358.83 218.858L372.059 213.373L393.612 235.761L372.74 229L358.83 218.858ZM371.112 230.051L359.27 252.109L351.978 261.322L357.935 239.819V220.444L371.112 230.051ZM373.931 212.597L388.346 206.619L404.293 224.519L424.666 237.718L399.177 231.938L385.119 223.155L373.931 212.597ZM390.132 205.879L404.764 199.812L425.87 216.716L452.113 224.943H428.411L405.383 222.997L390.132 205.879ZM457.928 224.894L502.217 210.242L416.246 195.051L406.674 199.02L426.792 215.133L457.928 224.894ZM418.002 193.546L432.876 178.639L492.373 174.223L517.924 183.388L479.183 204.141L418.002 193.546ZM435.77 176.64L505.441 171.468L539.634 139.162L470.551 153.346L435.77 176.64ZM317.186 226.275H300.309V199.698H317.186C318.23 199.698 319.124 200.09 319.869 200.872C320.689 201.655 321.098 202.545 321.098 203.541V222.326C321.098 223.464 320.689 224.425 319.869 225.207C319.124 225.919 318.23 226.275 317.186 226.275Z" fill="#053B50"/>
<path fill-rule="evenodd" clip-rule="evenodd" d="M259.18 235.454C259.702 235.952 260.348 236.201 261.118 236.201H266.185C266.93 236.201 267.563 235.952 268.085 235.454C268.606 234.932 268.867 234.315 268.867 233.604V221.009C268.867 220.298 268.606 219.693 268.085 219.195C267.563 218.673 266.93 218.412 266.185 218.412H261.118C260.348 218.412 259.702 218.673 259.18 219.195C258.659 219.693 258.398 220.298 258.398 221.009V233.604C258.398 234.315 258.659 234.932 259.18 235.454ZM264.024 232.856H263.241C262.869 232.856 262.546 232.738 262.273 232.501C262.024 232.24 261.9 231.931 261.9 231.576V223.037C261.9 222.681 262.024 222.385 262.273 222.148C262.546 221.887 262.869 221.756 263.241 221.756H264.024C264.396 221.756 264.719 221.887 264.992 222.148C265.266 222.385 265.402 222.681 265.402 223.037V231.576C265.402 231.931 265.266 232.24 264.992 232.501C264.719 232.738 264.396 232.856 264.024 232.856Z" fill="#053B50"/>
<path d="M271.162 212.15V236.201H274.626V221.792H278.24L279.023 218.448H274.626V214.178C274.626 213.846 274.751 213.562 274.999 213.325C275.272 213.064 275.595 212.933 275.968 212.933H276.787C277.16 212.933 277.47 213.064 277.719 213.325C277.992 213.562 278.129 213.846 278.129 214.178V215.281L281.593 215.993V212.15C281.593 211.439 281.333 210.834 280.811 210.336C280.289 209.838 279.656 209.589 278.911 209.589H273.807C273.087 209.589 272.466 209.838 271.944 210.336C271.422 210.834 271.162 211.439 271.162 212.15Z" fill="#053B50"/>
<path fill-rule="evenodd" clip-rule="evenodd" d="M2 3L113.806 76.4427L229.517 129.708C229.681 129.78 229.837 129.852 229.985 129.924L230.142 130L259.295 161.367L249.88 174.176V180.7L245.767 179.771L238.338 189.879H241.833C244.068 189.879 245.968 190.626 247.533 192.12C249.098 193.615 249.88 195.429 249.88 197.564V228.516C249.88 230.651 249.098 232.465 247.533 233.959C245.968 235.454 244.068 236.201 241.833 236.201H225.126L229.328 245.388L214.507 239.215L218.842 260.277L206.355 248.142L200.928 236.841V239.588L208.034 265.236L206.39 266L196.146 253.058L184.242 230.884L160.535 238.564L159.55 237.12L169.536 226.746L158.57 233.597L127.826 240.569L127.088 238.967L148.586 225.039L128.671 226.722H98.9072L47.5095 209.718L75.2657 204.813L34.6705 183.068L60.2379 173.897L50.734 173.191L11.5214 136.142L45.9777 143.217L22.7499 111.265L10.4683 58.5501L2 3ZM214.803 236.053C215.334 236.151 215.886 236.201 216.461 236.201H223.093L225.72 241.945L214.399 237.23L214.803 236.053ZM208.414 223.105V228.516C208.414 230.651 209.196 232.465 210.761 233.959C211.452 234.62 212.209 235.134 213.032 235.503L212.29 237.665L215.816 254.798L207.912 247.117L200.928 232.573V220.002L208.414 223.105ZM219.692 224.943C219.103 224.219 218.808 223.382 218.808 222.432V214.214L208.414 211.973V221.166L141.409 193.383L125.163 177.102L89.3308 153.103L113.357 150.144L140.599 152.394L184.274 174.109L184.289 174.117L208.414 185.59V192.12C208.414 194.255 209.196 196.07 210.761 197.564C212.325 199.058 214.226 199.805 216.461 199.805H231.69V224.943H219.692ZM233.553 226.275H235.462C236.579 226.275 237.511 225.919 238.256 225.207C239.076 224.425 239.485 223.5 239.485 222.432V203.648C239.485 202.58 239.076 201.691 238.256 200.979C237.511 200.197 236.579 199.805 235.462 199.805H233.553V226.275ZM236.062 189.879H235.183L238.748 176.023L234.005 171.415H235.462C236.579 171.415 237.511 171.806 238.256 172.589C239.076 173.3 239.485 174.19 239.485 175.257V178.352L243.816 179.33L236.062 189.879ZM249.88 171.079L256.924 161.496L228.99 131.44L228.715 131.314C226.708 130.438 223.201 129.495 217.819 128.34C212.068 127.105 204.284 125.646 194.11 123.763C193.63 123.674 193.144 123.584 192.653 123.493C191.828 123.34 190.988 123.185 190.132 123.027C170.665 119.427 143.313 114.37 106.094 106.688L131.753 125.062L154.532 142.772L217.797 155.663L223.791 161.488H241.833C244.068 161.488 245.968 162.236 247.533 163.73C249.098 165.224 249.88 167.039 249.88 169.173V171.079ZM221.18 161.488L216.86 157.291L153.704 144.422L130.778 126.598L83.6594 118.596L141.315 150.744L185.119 172.524L185.134 172.532L208.414 183.602V169.173C208.414 167.039 209.196 165.224 210.761 163.73C212.325 162.236 214.226 161.488 216.461 161.488H221.18ZM231.393 171.415H222.72C221.677 171.415 220.745 171.806 219.926 172.589C219.181 173.3 218.808 174.19 218.808 175.257V186.037C218.808 187.104 219.181 188.029 219.926 188.812C220.745 189.523 221.677 189.879 222.72 189.879H233.265L236.691 176.562L231.393 171.415ZM48.6432 143.764L86.8692 151.612L113.318 148.355L136.817 150.296L78.2741 117.653L44.4299 105.693L13.3319 62.6502L24.4888 110.537L48.6432 143.764ZM12.2754 58.0553L4.45771 6.77349L112.868 77.9857L218.71 126.708L218.228 126.604C212.445 125.362 204.631 123.898 194.465 122.016C193.319 121.804 192.143 121.587 190.937 121.364L190.486 121.28C170.301 117.548 141.654 112.252 102.32 104.087L101.564 105.668L127.49 124.233L78.9187 115.984L45.6287 104.22L12.2754 58.0553ZM198.171 218.858L184.941 213.373L163.388 235.761L184.26 229L198.171 218.858ZM185.888 230.051L197.73 252.109L205.022 261.322L199.065 239.819V220.444L185.888 230.051ZM183.07 212.597L168.654 206.619L152.707 224.519L132.334 237.718L157.823 231.938L171.881 223.155L183.07 212.597ZM166.868 205.879L152.236 199.812L131.13 216.716L104.887 224.943H128.589L151.617 222.997L166.868 205.879ZM99.072 224.894L54.7833 210.242L140.754 195.051L150.326 199.02L130.208 215.133L99.072 224.894ZM138.998 193.546L124.124 178.639L64.6269 174.223L39.0757 183.388L77.8175 204.141L138.998 193.546ZM121.23 176.64L51.5589 171.468L17.3658 139.162L86.4494 153.346L121.23 176.64Z" stroke="#EDE9ED" stroke-width="2" mask="url(#path-1-outside-1_123_507)"/>
<path fill-rule="evenodd" clip-rule="evenodd" d="M555 3L443.194 76.4427L327.483 129.708C327.319 129.78 327.163 129.852 327.015 129.924L326.858 130L297.705 161.367L297.716 161.382H289.803V236.201H323.446C325.681 236.201 327.581 235.454 329.146 233.959C329.749 233.384 330.235 232.755 330.606 232.074L332.499 234.834L327.672 245.388L342.493 239.215L338.158 260.277L350.645 248.142L356.072 236.841V239.588L348.966 265.236L350.61 266L360.854 253.058L372.758 230.884L396.465 238.564L397.45 237.12L387.464 226.746L398.43 233.597L429.174 240.569L429.912 238.967L408.414 225.039L428.329 226.722H458.093L509.491 209.718L481.734 204.813L522.329 183.068L496.762 173.897L506.266 173.191L545.479 136.142L511.022 143.217L534.25 111.265L546.532 58.5501L555 3ZM329.669 192.599C328.763 191.507 327.658 190.743 326.352 190.306V170.691L340.14 157.291L403.296 144.422L426.222 126.598L473.341 118.596L415.685 150.744L371.881 172.524L371.866 172.532L329.669 192.599ZM331.493 224.943V197.457C331.493 196.281 331.22 195.165 330.673 194.109L372.726 174.11L416.401 152.394L443.643 150.144L467.669 153.103L431.837 177.102L415.591 193.383L339.478 224.943H331.493ZM331.359 229.927C331.448 229.441 331.493 228.935 331.493 228.409V226.722H338.996L342.601 237.23L331.28 241.945L334.609 234.664L331.359 229.927ZM326.304 168.199C326.112 166.5 325.346 165.011 324.004 163.73C322.44 162.164 320.502 161.382 318.192 161.382H300.182L328.01 131.44L328.285 131.314C330.292 130.438 333.799 129.495 339.181 128.34C344.932 127.105 352.716 125.646 362.89 123.763L366.868 123.027C386.335 119.427 413.687 114.37 450.906 106.688L425.262 125.051L425.247 125.062L425.233 125.073L402.468 142.772L339.203 155.663L326.304 168.199ZM307.288 171.308H311.822C312.939 171.308 313.908 171.699 314.728 172.482C315.547 173.193 315.957 174.083 315.957 175.15V183.103L307.288 171.308ZM305.012 171.308L315.954 186.194C315.912 187.127 315.504 187.964 314.728 188.705C313.908 189.488 312.939 189.879 311.822 189.879H300.309V171.308H305.012ZM508.357 143.764L470.131 151.612L443.682 148.355L420.184 150.296L478.726 117.653L512.57 105.693L543.668 62.6502L532.511 110.537L508.357 143.764ZM544.725 58.0553L552.542 6.77349L444.132 77.9857L338.29 126.708L338.772 126.604C344.555 125.362 352.369 123.898 362.535 122.016C363.803 121.782 365.107 121.541 366.448 121.293L366.514 121.28C386.699 117.548 415.346 112.252 454.68 104.087L455.436 105.668L429.51 124.233L478.081 115.984L511.371 104.22L544.725 58.0553ZM340.821 226.325L356.072 220.002V232.573L349.088 247.117L341.184 254.798L344.71 237.665L340.821 226.325ZM358.83 218.858L372.059 213.373L393.612 235.761L372.74 229L358.83 218.858ZM371.112 230.051L359.27 252.109L351.978 261.322L357.935 239.819V220.444L371.112 230.051ZM373.931 212.597L388.346 206.619L404.293 224.519L424.666 237.718L399.177 231.938L385.119 223.155L373.931 212.597ZM390.132 205.879L404.764 199.812L425.87 216.716L452.113 224.943H428.411L405.383 222.997L390.132 205.879ZM457.928 224.894L502.217 210.242L416.246 195.051L406.674 199.02L426.792 215.133L457.928 224.894ZM418.002 193.546L432.876 178.639L492.373 174.223L517.924 183.388L479.183 204.141L418.002 193.546ZM435.77 176.64L505.441 171.468L539.634 139.162L470.551 153.346L435.77 176.64ZM317.186 226.275H300.309V199.698H317.186C318.23 199.698 319.124 200.09 319.869 200.872C320.689 201.655 321.098 202.545 321.098 203.541V222.326C321.098 223.464 320.689 224.425 319.869 225.207C319.124 225.919 318.23 226.275 317.186 226.275Z" stroke="#EDE9ED" stroke-width="2" mask="url(#path-1-outside-1_123_507)"/>
<path fill-rule="evenodd" clip-rule="evenodd" d="M259.18 235.454C259.702 235.952 260.348 236.201 261.118 236.201H266.185C266.93 236.201 267.563 235.952 268.085 235.454C268.606 234.932 268.867 234.315 268.867 233.604V221.009C268.867 220.298 268.606 219.693 268.085 219.195C267.563 218.673 266.93 218.412 266.185 218.412H261.118C260.348 218.412 259.702 218.673 259.18 219.195C258.659 219.693 258.398 220.298 258.398 221.009V233.604C258.398 234.315 258.659 234.932 259.18 235.454ZM264.024 232.856H263.241C262.869 232.856 262.546 232.738 262.273 232.501C262.024 232.24 261.9 231.931 261.9 231.576V223.037C261.9 222.681 262.024 222.385 262.273 222.148C262.546 221.887 262.869 221.756 263.241 221.756H264.024C264.396 221.756 264.719 221.887 264.992 222.148C265.266 222.385 265.402 222.681 265.402 223.037V231.576C265.402 231.931 265.266 232.24 264.992 232.501C264.719 232.738 264.396 232.856 264.024 232.856Z" stroke="#EDE9ED" stroke-width="2" mask="url(#path-1-outside-1_123_507)"/>
<path d="M271.162 212.15V236.201H274.626V221.792H278.24L279.023 218.448H274.626V214.178C274.626 213.846 274.751 213.562 274.999 213.325C275.272 213.064 275.595 212.933 275.968 212.933H276.787C277.16 212.933 277.47 213.064 277.719 213.325C277.992 213.562 278.129 213.846 278.129 214.178V215.281L281.593 215.993V212.15C281.593 211.439 281.333 210.834 280.811 210.336C280.289 209.838 279.656 209.589 278.911 209.589H273.807C273.087 209.589 272.466 209.838 271.944 210.336C271.422 210.834 271.162 211.439 271.162 212.15Z" stroke="#EDE9ED" stroke-width="2" mask="url(#path-1-outside-1_123_507)"/>
</svg>
