<svg width="520" height="250" viewBox="0 0 520 250" fill="none" xmlns="http://www.w3.org/2000/svg">
<mask id="path-1-outside-1_459_229" maskUnits="userSpaceOnUse" x="0" y="0" width="520" height="250" fill="black">
<rect fill="white" width="520" height="250"/>
<path fill-rule="evenodd" clip-rule="evenodd" d="M2 3L106.312 71.494L214.266 121.17C214.419 121.237 214.565 121.304 214.703 121.372L214.85 121.443L242.048 150.696L233.264 162.642V168.726L229.427 167.86L222.496 177.287H225.756C227.842 177.287 229.614 177.984 231.074 179.377C232.534 180.771 233.264 182.463 233.264 184.454V213.32C233.264 215.311 232.534 217.003 231.074 218.397C229.614 219.791 227.842 220.487 225.756 220.487H210.169L214.089 229.056L200.262 223.299L204.306 242.941L192.656 231.624L187.594 221.085V223.646L194.223 247.566L192.69 248.279L183.132 236.209L172.026 215.529L149.908 222.691L148.989 221.344L158.306 211.67L148.075 218.059L119.391 224.561L118.703 223.067L138.76 210.077L120.18 211.647H92.4113L44.4589 195.789L70.3545 191.215L32.4806 170.935L56.3341 162.381L47.4672 161.723L10.8832 127.171L43.0298 133.769L21.3589 103.97L9.90068 54.8071L2 3ZM200.538 220.349C201.033 220.441 201.549 220.487 202.085 220.487H208.273L210.724 225.844L200.162 221.447L200.538 220.349ZM194.577 208.274V213.32C194.577 215.311 195.307 217.003 196.767 218.397C197.412 219.013 198.118 219.493 198.886 219.836L198.193 221.853L201.483 237.832L194.109 230.668L187.594 217.105V205.38L194.577 208.274ZM205.1 209.988C204.55 209.313 204.275 208.532 204.275 207.647V199.982L194.577 197.892V206.466L132.064 180.555L116.907 165.37L83.4768 142.989L105.892 140.229L131.308 142.328L172.055 162.58L172.069 162.587L194.577 173.287V179.377C194.577 181.368 195.307 183.06 196.767 184.454C198.227 185.847 200 186.544 202.085 186.544H216.293V209.988H205.1ZM218.031 211.23H219.812C220.855 211.23 221.724 210.898 222.419 210.235C223.184 209.505 223.566 208.642 223.566 207.647V190.128C223.566 189.132 223.184 188.303 222.419 187.639C221.724 186.909 220.855 186.544 219.812 186.544H218.031V211.23ZM220.372 177.287H219.552L222.878 164.365L218.453 160.067H219.812C220.855 160.067 221.724 160.431 222.419 161.161C223.184 161.825 223.566 162.655 223.566 163.65V166.537L227.606 167.449L220.372 177.287ZM233.264 159.754L239.836 150.816L213.775 122.786L213.518 122.668C211.645 121.851 208.373 120.972 203.352 119.894C197.987 118.742 190.724 117.382 181.233 115.625C180.784 115.543 180.331 115.459 179.874 115.374C179.104 115.232 178.319 115.087 177.521 114.939C159.359 111.582 133.841 106.866 99.1163 99.7017L123.055 116.837L144.308 133.354L203.331 145.376L208.924 150.809H225.756C227.842 150.809 229.614 151.506 231.074 152.9C232.534 154.293 233.264 155.985 233.264 157.976V159.754ZM206.487 150.809L202.458 146.895L143.535 134.893L122.146 118.27L78.1856 110.807L131.976 140.789L172.844 161.102L172.858 161.108L194.577 171.433V157.976C194.577 155.985 195.307 154.293 196.767 152.9C198.227 151.506 200 150.809 202.085 150.809H206.487ZM216.017 160.067H207.925C206.951 160.067 206.082 160.431 205.318 161.161C204.622 161.825 204.275 162.655 204.275 163.65V173.703C204.275 174.699 204.622 175.562 205.318 176.292C206.082 176.955 206.951 177.287 207.925 177.287H217.763L220.959 164.868L216.017 160.067ZM45.5166 134.279L81.1802 141.599L105.856 138.561L127.779 140.371L73.1613 109.927L41.5857 98.7732L12.5723 58.6309L22.9813 103.291L45.5166 134.279ZM11.5866 54.3456L4.29296 6.51923L105.437 72.9331L204.184 118.373L203.733 118.275C198.338 117.117 191.048 115.752 181.563 113.997C180.494 113.799 179.397 113.596 178.272 113.388L177.852 113.31C159.019 109.83 132.293 104.89 95.5957 97.2757L94.8898 98.7499L119.078 116.064L73.7626 108.371L42.7042 97.3993L11.5866 54.3456ZM185.021 204.313L172.678 199.197L152.57 220.077L172.043 213.772L185.021 204.313ZM173.561 214.752L184.61 235.324L191.413 243.916L185.856 223.862V205.792L173.561 214.752ZM170.932 198.474L157.482 192.899L142.604 209.593L123.597 221.902L147.377 216.512L160.494 208.321L170.932 198.474ZM155.816 192.208L142.166 186.551L122.474 202.315L97.9906 209.988H120.103L141.588 208.173L155.816 192.208ZM92.565 209.942L51.2451 196.277L131.453 182.11L140.384 185.812L121.614 200.839L92.565 209.942ZM129.815 180.707L115.938 166.805L60.4288 162.685L36.5904 171.234L72.7353 190.587L129.815 180.707ZM113.238 164.94L48.2368 160.117L16.3358 129.987L80.7886 143.215L113.238 164.94Z"/>
<path fill-rule="evenodd" clip-rule="evenodd" d="M517.931 3L413.619 71.494L305.665 121.17C305.512 121.237 305.366 121.304 305.228 121.372L305.082 121.443L277.883 150.696L277.894 150.71H270.511V220.487H301.898C303.984 220.487 305.757 219.791 307.216 218.397C307.779 217.86 308.233 217.274 308.578 216.639L310.345 219.213L305.842 229.056L319.669 223.299L315.625 242.941L327.275 231.624L332.338 221.085V223.646L325.708 247.566L327.241 248.279L336.799 236.209L347.905 215.529L370.023 222.691L370.942 221.344L361.625 211.67L371.856 218.059L400.54 224.561L401.228 223.067L381.171 210.077L399.751 211.647H427.52L475.472 195.789L449.577 191.215L487.45 170.935L463.597 162.381L472.464 161.723L509.048 127.171L476.901 133.769L498.572 103.97L510.03 54.8071L517.931 3ZM307.704 179.824C306.86 178.805 305.828 178.092 304.609 177.685V159.391L317.473 146.895L376.396 134.893L397.785 118.27L441.745 110.807L387.955 140.789L347.087 161.102L347.073 161.108L307.704 179.824ZM309.406 209.988V184.354C309.406 183.257 309.151 182.216 308.641 181.232L347.876 162.58L388.623 142.328L414.039 140.229L436.454 142.989L403.024 165.37L387.867 180.555L316.856 209.988H309.406ZM309.282 214.636C309.365 214.183 309.406 213.712 309.406 213.221V211.647H316.407L319.769 221.447L309.207 225.844L312.314 219.054L309.282 214.636ZM304.565 157.068C304.386 155.483 303.671 154.094 302.42 152.9C300.96 151.44 299.152 150.71 296.997 150.71H280.194L306.156 122.786L306.414 122.668C308.286 121.851 311.558 120.972 316.579 119.894C321.944 118.742 329.207 117.382 338.698 115.625L342.41 114.939C360.573 111.582 386.09 106.866 420.815 99.7017L396.89 116.827L396.876 116.837L396.863 116.848L375.624 133.354L316.6 145.376L304.565 157.068ZM286.824 159.967H291.053C292.096 159.967 293 160.332 293.765 161.062C294.529 161.726 294.912 162.555 294.912 163.55V170.967L286.824 159.967ZM284.7 159.967L294.908 173.85C294.87 174.72 294.489 175.501 293.765 176.192C293 176.922 292.096 177.287 291.053 177.287H280.313V159.967H284.7ZM474.414 134.279L438.751 141.599L414.075 138.561L392.152 140.371L446.77 109.927L478.345 98.7732L507.359 58.6309L496.95 103.291L474.414 134.279ZM508.344 54.3456L515.638 6.51923L414.494 72.9331L315.747 118.373L316.198 118.275C321.593 117.117 328.883 115.752 338.368 113.997C339.55 113.778 340.767 113.553 342.018 113.322L342.08 113.31C360.912 109.83 387.638 104.89 424.335 97.2757L425.041 98.7499L400.853 116.064L446.168 108.371L477.227 97.3993L508.344 54.3456ZM318.109 211.277L332.338 205.38V217.105L325.822 230.668L318.448 237.832L321.738 221.853L318.109 211.277ZM334.91 204.313L347.253 199.197L367.361 220.077L347.888 213.772L334.91 204.313ZM346.37 214.752L335.321 235.324L328.518 243.916L334.075 223.862V205.792L346.37 214.752ZM348.999 198.474L362.449 192.899L377.327 209.593L396.334 221.902L372.554 216.512L359.437 208.321L348.999 198.474ZM364.115 192.208L377.765 186.551L397.457 202.315L421.94 209.988H399.828L378.343 208.173L364.115 192.208ZM427.366 209.942L468.686 196.277L388.478 182.11L379.547 185.812L398.317 200.839L427.366 209.942ZM390.116 180.707L403.993 166.805L459.502 162.685L483.341 171.234L447.196 190.587L390.116 180.707ZM406.694 164.94L471.694 160.117L503.595 129.987L439.143 143.215L406.694 164.94ZM296.059 211.23H280.313V186.445H296.059C297.032 186.445 297.866 186.81 298.561 187.54C299.326 188.27 299.708 189.099 299.708 190.028V207.547C299.708 208.609 299.326 209.505 298.561 210.235C297.866 210.898 297.032 211.23 296.059 211.23Z"/>
<path fill-rule="evenodd" clip-rule="evenodd" d="M241.941 219.791C242.428 220.255 243.03 220.487 243.748 220.487H248.476C249.171 220.487 249.762 220.255 250.248 219.791C250.735 219.304 250.978 218.729 250.978 218.065V206.319C250.978 205.656 250.735 205.092 250.248 204.627C249.762 204.141 249.171 203.897 248.476 203.897H243.748C243.03 203.897 242.428 204.141 241.941 204.627C241.454 205.092 241.211 205.656 241.211 206.319V218.065C241.211 218.729 241.454 219.304 241.941 219.791ZM246.46 217.368H245.73C245.382 217.368 245.081 217.258 244.826 217.037C244.594 216.793 244.478 216.506 244.478 216.174V208.211C244.478 207.879 244.594 207.602 244.826 207.381C245.081 207.138 245.382 207.016 245.73 207.016H246.46C246.807 207.016 247.109 207.138 247.363 207.381C247.618 207.602 247.746 207.879 247.746 208.211V216.174C247.746 216.506 247.618 216.793 247.363 217.037C247.109 217.258 246.807 217.368 246.46 217.368Z"/>
<path d="M253.119 198.058V220.487H256.352V207.049H259.723L260.453 203.93H256.352V199.949C256.352 199.639 256.468 199.374 256.699 199.153C256.954 198.909 257.255 198.788 257.603 198.788H258.368C258.715 198.788 259.005 198.909 259.237 199.153C259.492 199.374 259.619 199.639 259.619 199.949V200.977L262.852 201.641V198.058C262.852 197.394 262.608 196.83 262.122 196.365C261.635 195.901 261.044 195.669 260.349 195.669H255.587C254.915 195.669 254.336 195.901 253.849 196.365C253.362 196.83 253.119 197.394 253.119 198.058Z"/>
</mask>
<path fill-rule="evenodd" clip-rule="evenodd" d="M2 3L106.312 71.494L214.266 121.17C214.419 121.237 214.565 121.304 214.703 121.372L214.85 121.443L242.048 150.696L233.264 162.642V168.726L229.427 167.86L222.496 177.287H225.756C227.842 177.287 229.614 177.984 231.074 179.377C232.534 180.771 233.264 182.463 233.264 184.454V213.32C233.264 215.311 232.534 217.003 231.074 218.397C229.614 219.791 227.842 220.487 225.756 220.487H210.169L214.089 229.056L200.262 223.299L204.306 242.941L192.656 231.624L187.594 221.085V223.646L194.223 247.566L192.69 248.279L183.132 236.209L172.026 215.529L149.908 222.691L148.989 221.344L158.306 211.67L148.075 218.059L119.391 224.561L118.703 223.067L138.76 210.077L120.18 211.647H92.4113L44.4589 195.789L70.3545 191.215L32.4806 170.935L56.3341 162.381L47.4672 161.723L10.8832 127.171L43.0298 133.769L21.3589 103.97L9.90068 54.8071L2 3ZM200.538 220.349C201.033 220.441 201.549 220.487 202.085 220.487H208.273L210.724 225.844L200.162 221.447L200.538 220.349ZM194.577 208.274V213.32C194.577 215.311 195.307 217.003 196.767 218.397C197.412 219.013 198.118 219.493 198.886 219.836L198.193 221.853L201.483 237.832L194.109 230.668L187.594 217.105V205.38L194.577 208.274ZM205.1 209.988C204.55 209.313 204.275 208.532 204.275 207.647V199.982L194.577 197.892V206.466L132.064 180.555L116.907 165.37L83.4768 142.989L105.892 140.229L131.308 142.328L172.055 162.58L172.069 162.587L194.577 173.287V179.377C194.577 181.368 195.307 183.06 196.767 184.454C198.227 185.847 200 186.544 202.085 186.544H216.293V209.988H205.1ZM218.031 211.23H219.812C220.855 211.23 221.724 210.898 222.419 210.235C223.184 209.505 223.566 208.642 223.566 207.647V190.128C223.566 189.132 223.184 188.303 222.419 187.639C221.724 186.909 220.855 186.544 219.812 186.544H218.031V211.23ZM220.372 177.287H219.552L222.878 164.365L218.453 160.067H219.812C220.855 160.067 221.724 160.431 222.419 161.161C223.184 161.825 223.566 162.655 223.566 163.65V166.537L227.606 167.449L220.372 177.287ZM233.264 159.754L239.836 150.816L213.775 122.786L213.518 122.668C211.645 121.851 208.373 120.972 203.352 119.894C197.987 118.742 190.724 117.382 181.233 115.625C180.784 115.543 180.331 115.459 179.874 115.374C179.104 115.232 178.319 115.087 177.521 114.939C159.359 111.582 133.841 106.866 99.1163 99.7017L123.055 116.837L144.308 133.354L203.331 145.376L208.924 150.809H225.756C227.842 150.809 229.614 151.506 231.074 152.9C232.534 154.293 233.264 155.985 233.264 157.976V159.754ZM206.487 150.809L202.458 146.895L143.535 134.893L122.146 118.27L78.1856 110.807L131.976 140.789L172.844 161.102L172.858 161.108L194.577 171.433V157.976C194.577 155.985 195.307 154.293 196.767 152.9C198.227 151.506 200 150.809 202.085 150.809H206.487ZM216.017 160.067H207.925C206.951 160.067 206.082 160.431 205.318 161.161C204.622 161.825 204.275 162.655 204.275 163.65V173.703C204.275 174.699 204.622 175.562 205.318 176.292C206.082 176.955 206.951 177.287 207.925 177.287H217.763L220.959 164.868L216.017 160.067ZM45.5166 134.279L81.1802 141.599L105.856 138.561L127.779 140.371L73.1613 109.927L41.5857 98.7732L12.5723 58.6309L22.9813 103.291L45.5166 134.279ZM11.5866 54.3456L4.29296 6.51923L105.437 72.9331L204.184 118.373L203.733 118.275C198.338 117.117 191.048 115.752 181.563 113.997C180.494 113.799 179.397 113.596 178.272 113.388L177.852 113.31C159.019 109.83 132.293 104.89 95.5957 97.2757L94.8898 98.7499L119.078 116.064L73.7626 108.371L42.7042 97.3993L11.5866 54.3456ZM185.021 204.313L172.678 199.197L152.57 220.077L172.043 213.772L185.021 204.313ZM173.561 214.752L184.61 235.324L191.413 243.916L185.856 223.862V205.792L173.561 214.752ZM170.932 198.474L157.482 192.899L142.604 209.593L123.597 221.902L147.377 216.512L160.494 208.321L170.932 198.474ZM155.816 192.208L142.166 186.551L122.474 202.315L97.9906 209.988H120.103L141.588 208.173L155.816 192.208ZM92.565 209.942L51.2451 196.277L131.453 182.11L140.384 185.812L121.614 200.839L92.565 209.942ZM129.815 180.707L115.938 166.805L60.4288 162.685L36.5904 171.234L72.7353 190.587L129.815 180.707ZM113.238 164.94L48.2368 160.117L16.3358 129.987L80.7886 143.215L113.238 164.94Z" fill="#EEEEEE"/>
<path fill-rule="evenodd" clip-rule="evenodd" d="M517.931 3L413.619 71.494L305.665 121.17C305.512 121.237 305.366 121.304 305.228 121.372L305.082 121.443L277.883 150.696L277.894 150.71H270.511V220.487H301.898C303.984 220.487 305.757 219.791 307.216 218.397C307.779 217.86 308.233 217.274 308.578 216.639L310.345 219.213L305.842 229.056L319.669 223.299L315.625 242.941L327.275 231.624L332.338 221.085V223.646L325.708 247.566L327.241 248.279L336.799 236.209L347.905 215.529L370.023 222.691L370.942 221.344L361.625 211.67L371.856 218.059L400.54 224.561L401.228 223.067L381.171 210.077L399.751 211.647H427.52L475.472 195.789L449.577 191.215L487.45 170.935L463.597 162.381L472.464 161.723L509.048 127.171L476.901 133.769L498.572 103.97L510.03 54.8071L517.931 3ZM307.704 179.824C306.86 178.805 305.828 178.092 304.609 177.685V159.391L317.473 146.895L376.396 134.893L397.785 118.27L441.745 110.807L387.955 140.789L347.087 161.102L347.073 161.108L307.704 179.824ZM309.406 209.988V184.354C309.406 183.257 309.151 182.216 308.641 181.232L347.876 162.58L388.623 142.328L414.039 140.229L436.454 142.989L403.024 165.37L387.867 180.555L316.856 209.988H309.406ZM309.282 214.636C309.365 214.183 309.406 213.712 309.406 213.221V211.647H316.407L319.769 221.447L309.207 225.844L312.314 219.054L309.282 214.636ZM304.565 157.068C304.386 155.483 303.671 154.094 302.42 152.9C300.96 151.44 299.152 150.71 296.997 150.71H280.194L306.156 122.786L306.414 122.668C308.286 121.851 311.558 120.972 316.579 119.894C321.944 118.742 329.207 117.382 338.698 115.625L342.41 114.939C360.573 111.582 386.09 106.866 420.815 99.7017L396.89 116.827L396.876 116.837L396.863 116.848L375.624 133.354L316.6 145.376L304.565 157.068ZM286.824 159.967H291.053C292.096 159.967 293 160.332 293.765 161.062C294.529 161.726 294.912 162.555 294.912 163.55V170.967L286.824 159.967ZM284.7 159.967L294.908 173.85C294.87 174.72 294.489 175.501 293.765 176.192C293 176.922 292.096 177.287 291.053 177.287H280.313V159.967H284.7ZM474.414 134.279L438.751 141.599L414.075 138.561L392.152 140.371L446.77 109.927L478.345 98.7732L507.359 58.6309L496.95 103.291L474.414 134.279ZM508.344 54.3456L515.638 6.51923L414.494 72.9331L315.747 118.373L316.198 118.275C321.593 117.117 328.883 115.752 338.368 113.997C339.55 113.778 340.767 113.553 342.018 113.322L342.08 113.31C360.912 109.83 387.638 104.89 424.335 97.2757L425.041 98.7499L400.853 116.064L446.168 108.371L477.227 97.3993L508.344 54.3456ZM318.109 211.277L332.338 205.38V217.105L325.822 230.668L318.448 237.832L321.738 221.853L318.109 211.277ZM334.91 204.313L347.253 199.197L367.361 220.077L347.888 213.772L334.91 204.313ZM346.37 214.752L335.321 235.324L328.518 243.916L334.075 223.862V205.792L346.37 214.752ZM348.999 198.474L362.449 192.899L377.327 209.593L396.334 221.902L372.554 216.512L359.437 208.321L348.999 198.474ZM364.115 192.208L377.765 186.551L397.457 202.315L421.94 209.988H399.828L378.343 208.173L364.115 192.208ZM427.366 209.942L468.686 196.277L388.478 182.11L379.547 185.812L398.317 200.839L427.366 209.942ZM390.116 180.707L403.993 166.805L459.502 162.685L483.341 171.234L447.196 190.587L390.116 180.707ZM406.694 164.94L471.694 160.117L503.595 129.987L439.143 143.215L406.694 164.94ZM296.059 211.23H280.313V186.445H296.059C297.032 186.445 297.866 186.81 298.561 187.54C299.326 188.27 299.708 189.099 299.708 190.028V207.547C299.708 208.609 299.326 209.505 298.561 210.235C297.866 210.898 297.032 211.23 296.059 211.23Z" fill="#EEEEEE"/>
<path fill-rule="evenodd" clip-rule="evenodd" d="M241.941 219.791C242.428 220.255 243.03 220.487 243.748 220.487H248.476C249.171 220.487 249.762 220.255 250.248 219.791C250.735 219.304 250.978 218.729 250.978 218.065V206.319C250.978 205.656 250.735 205.092 250.248 204.627C249.762 204.141 249.171 203.897 248.476 203.897H243.748C243.03 203.897 242.428 204.141 241.941 204.627C241.454 205.092 241.211 205.656 241.211 206.319V218.065C241.211 218.729 241.454 219.304 241.941 219.791ZM246.46 217.368H245.73C245.382 217.368 245.081 217.258 244.826 217.037C244.594 216.793 244.478 216.506 244.478 216.174V208.211C244.478 207.879 244.594 207.602 244.826 207.381C245.081 207.138 245.382 207.016 245.73 207.016H246.46C246.807 207.016 247.109 207.138 247.363 207.381C247.618 207.602 247.746 207.879 247.746 208.211V216.174C247.746 216.506 247.618 216.793 247.363 217.037C247.109 217.258 246.807 217.368 246.46 217.368Z" fill="#EEEEEE"/>
<path d="M253.119 198.058V220.487H256.352V207.049H259.723L260.453 203.93H256.352V199.949C256.352 199.639 256.468 199.374 256.699 199.153C256.954 198.909 257.255 198.788 257.603 198.788H258.368C258.715 198.788 259.005 198.909 259.237 199.153C259.492 199.374 259.619 199.639 259.619 199.949V200.977L262.852 201.641V198.058C262.852 197.394 262.608 196.83 262.122 196.365C261.635 195.901 261.044 195.669 260.349 195.669H255.587C254.915 195.669 254.336 195.901 253.849 196.365C253.362 196.83 253.119 197.394 253.119 198.058Z" fill="#EEEEEE"/>
<path fill-rule="evenodd" clip-rule="evenodd" d="M2 3L106.312 71.494L214.266 121.17C214.419 121.237 214.565 121.304 214.703 121.372L214.85 121.443L242.048 150.696L233.264 162.642V168.726L229.427 167.86L222.496 177.287H225.756C227.842 177.287 229.614 177.984 231.074 179.377C232.534 180.771 233.264 182.463 233.264 184.454V213.32C233.264 215.311 232.534 217.003 231.074 218.397C229.614 219.791 227.842 220.487 225.756 220.487H210.169L214.089 229.056L200.262 223.299L204.306 242.941L192.656 231.624L187.594 221.085V223.646L194.223 247.566L192.69 248.279L183.132 236.209L172.026 215.529L149.908 222.691L148.989 221.344L158.306 211.67L148.075 218.059L119.391 224.561L118.703 223.067L138.76 210.077L120.18 211.647H92.4113L44.4589 195.789L70.3545 191.215L32.4806 170.935L56.3341 162.381L47.4672 161.723L10.8832 127.171L43.0298 133.769L21.3589 103.97L9.90068 54.8071L2 3ZM200.538 220.349C201.033 220.441 201.549 220.487 202.085 220.487H208.273L210.724 225.844L200.162 221.447L200.538 220.349ZM194.577 208.274V213.32C194.577 215.311 195.307 217.003 196.767 218.397C197.412 219.013 198.118 219.493 198.886 219.836L198.193 221.853L201.483 237.832L194.109 230.668L187.594 217.105V205.38L194.577 208.274ZM205.1 209.988C204.55 209.313 204.275 208.532 204.275 207.647V199.982L194.577 197.892V206.466L132.064 180.555L116.907 165.37L83.4768 142.989L105.892 140.229L131.308 142.328L172.055 162.58L172.069 162.587L194.577 173.287V179.377C194.577 181.368 195.307 183.06 196.767 184.454C198.227 185.847 200 186.544 202.085 186.544H216.293V209.988H205.1ZM218.031 211.23H219.812C220.855 211.23 221.724 210.898 222.419 210.235C223.184 209.505 223.566 208.642 223.566 207.647V190.128C223.566 189.132 223.184 188.303 222.419 187.639C221.724 186.909 220.855 186.544 219.812 186.544H218.031V211.23ZM220.372 177.287H219.552L222.878 164.365L218.453 160.067H219.812C220.855 160.067 221.724 160.431 222.419 161.161C223.184 161.825 223.566 162.655 223.566 163.65V166.537L227.606 167.449L220.372 177.287ZM233.264 159.754L239.836 150.816L213.775 122.786L213.518 122.668C211.645 121.851 208.373 120.972 203.352 119.894C197.987 118.742 190.724 117.382 181.233 115.625C180.784 115.543 180.331 115.459 179.874 115.374C179.104 115.232 178.319 115.087 177.521 114.939C159.359 111.582 133.841 106.866 99.1163 99.7017L123.055 116.837L144.308 133.354L203.331 145.376L208.924 150.809H225.756C227.842 150.809 229.614 151.506 231.074 152.9C232.534 154.293 233.264 155.985 233.264 157.976V159.754ZM206.487 150.809L202.458 146.895L143.535 134.893L122.146 118.27L78.1856 110.807L131.976 140.789L172.844 161.102L172.858 161.108L194.577 171.433V157.976C194.577 155.985 195.307 154.293 196.767 152.9C198.227 151.506 200 150.809 202.085 150.809H206.487ZM216.017 160.067H207.925C206.951 160.067 206.082 160.431 205.318 161.161C204.622 161.825 204.275 162.655 204.275 163.65V173.703C204.275 174.699 204.622 175.562 205.318 176.292C206.082 176.955 206.951 177.287 207.925 177.287H217.763L220.959 164.868L216.017 160.067ZM45.5166 134.279L81.1802 141.599L105.856 138.561L127.779 140.371L73.1613 109.927L41.5857 98.7732L12.5723 58.6309L22.9813 103.291L45.5166 134.279ZM11.5866 54.3456L4.29296 6.51923L105.437 72.9331L204.184 118.373L203.733 118.275C198.338 117.117 191.048 115.752 181.563 113.997C180.494 113.799 179.397 113.596 178.272 113.388L177.852 113.31C159.019 109.83 132.293 104.89 95.5957 97.2757L94.8898 98.7499L119.078 116.064L73.7626 108.371L42.7042 97.3993L11.5866 54.3456ZM185.021 204.313L172.678 199.197L152.57 220.077L172.043 213.772L185.021 204.313ZM173.561 214.752L184.61 235.324L191.413 243.916L185.856 223.862V205.792L173.561 214.752ZM170.932 198.474L157.482 192.899L142.604 209.593L123.597 221.902L147.377 216.512L160.494 208.321L170.932 198.474ZM155.816 192.208L142.166 186.551L122.474 202.315L97.9906 209.988H120.103L141.588 208.173L155.816 192.208ZM92.565 209.942L51.2451 196.277L131.453 182.11L140.384 185.812L121.614 200.839L92.565 209.942ZM129.815 180.707L115.938 166.805L60.4288 162.685L36.5904 171.234L72.7353 190.587L129.815 180.707ZM113.238 164.94L48.2368 160.117L16.3358 129.987L80.7886 143.215L113.238 164.94Z" stroke="#33475B" stroke-width="2" mask="url(#path-1-outside-1_459_229)"/>
<path fill-rule="evenodd" clip-rule="evenodd" d="M517.931 3L413.619 71.494L305.665 121.17C305.512 121.237 305.366 121.304 305.228 121.372L305.082 121.443L277.883 150.696L277.894 150.71H270.511V220.487H301.898C303.984 220.487 305.757 219.791 307.216 218.397C307.779 217.86 308.233 217.274 308.578 216.639L310.345 219.213L305.842 229.056L319.669 223.299L315.625 242.941L327.275 231.624L332.338 221.085V223.646L325.708 247.566L327.241 248.279L336.799 236.209L347.905 215.529L370.023 222.691L370.942 221.344L361.625 211.67L371.856 218.059L400.54 224.561L401.228 223.067L381.171 210.077L399.751 211.647H427.52L475.472 195.789L449.577 191.215L487.45 170.935L463.597 162.381L472.464 161.723L509.048 127.171L476.901 133.769L498.572 103.97L510.03 54.8071L517.931 3ZM307.704 179.824C306.86 178.805 305.828 178.092 304.609 177.685V159.391L317.473 146.895L376.396 134.893L397.785 118.27L441.745 110.807L387.955 140.789L347.087 161.102L347.073 161.108L307.704 179.824ZM309.406 209.988V184.354C309.406 183.257 309.151 182.216 308.641 181.232L347.876 162.58L388.623 142.328L414.039 140.229L436.454 142.989L403.024 165.37L387.867 180.555L316.856 209.988H309.406ZM309.282 214.636C309.365 214.183 309.406 213.712 309.406 213.221V211.647H316.407L319.769 221.447L309.207 225.844L312.314 219.054L309.282 214.636ZM304.565 157.068C304.386 155.483 303.671 154.094 302.42 152.9C300.96 151.44 299.152 150.71 296.997 150.71H280.194L306.156 122.786L306.414 122.668C308.286 121.851 311.558 120.972 316.579 119.894C321.944 118.742 329.207 117.382 338.698 115.625L342.41 114.939C360.573 111.582 386.09 106.866 420.815 99.7017L396.89 116.827L396.876 116.837L396.863 116.848L375.624 133.354L316.6 145.376L304.565 157.068ZM286.824 159.967H291.053C292.096 159.967 293 160.332 293.765 161.062C294.529 161.726 294.912 162.555 294.912 163.55V170.967L286.824 159.967ZM284.7 159.967L294.908 173.85C294.87 174.72 294.489 175.501 293.765 176.192C293 176.922 292.096 177.287 291.053 177.287H280.313V159.967H284.7ZM474.414 134.279L438.751 141.599L414.075 138.561L392.152 140.371L446.77 109.927L478.345 98.7732L507.359 58.6309L496.95 103.291L474.414 134.279ZM508.344 54.3456L515.638 6.51923L414.494 72.9331L315.747 118.373L316.198 118.275C321.593 117.117 328.883 115.752 338.368 113.997C339.55 113.778 340.767 113.553 342.018 113.322L342.08 113.31C360.912 109.83 387.638 104.89 424.335 97.2757L425.041 98.7499L400.853 116.064L446.168 108.371L477.227 97.3993L508.344 54.3456ZM318.109 211.277L332.338 205.38V217.105L325.822 230.668L318.448 237.832L321.738 221.853L318.109 211.277ZM334.91 204.313L347.253 199.197L367.361 220.077L347.888 213.772L334.91 204.313ZM346.37 214.752L335.321 235.324L328.518 243.916L334.075 223.862V205.792L346.37 214.752ZM348.999 198.474L362.449 192.899L377.327 209.593L396.334 221.902L372.554 216.512L359.437 208.321L348.999 198.474ZM364.115 192.208L377.765 186.551L397.457 202.315L421.94 209.988H399.828L378.343 208.173L364.115 192.208ZM427.366 209.942L468.686 196.277L388.478 182.11L379.547 185.812L398.317 200.839L427.366 209.942ZM390.116 180.707L403.993 166.805L459.502 162.685L483.341 171.234L447.196 190.587L390.116 180.707ZM406.694 164.94L471.694 160.117L503.595 129.987L439.143 143.215L406.694 164.94ZM296.059 211.23H280.313V186.445H296.059C297.032 186.445 297.866 186.81 298.561 187.54C299.326 188.27 299.708 189.099 299.708 190.028V207.547C299.708 208.609 299.326 209.505 298.561 210.235C297.866 210.898 297.032 211.23 296.059 211.23Z" stroke="#33475B" stroke-width="2" mask="url(#path-1-outside-1_459_229)"/>
<path fill-rule="evenodd" clip-rule="evenodd" d="M241.941 219.791C242.428 220.255 243.03 220.487 243.748 220.487H248.476C249.171 220.487 249.762 220.255 250.248 219.791C250.735 219.304 250.978 218.729 250.978 218.065V206.319C250.978 205.656 250.735 205.092 250.248 204.627C249.762 204.141 249.171 203.897 248.476 203.897H243.748C243.03 203.897 242.428 204.141 241.941 204.627C241.454 205.092 241.211 205.656 241.211 206.319V218.065C241.211 218.729 241.454 219.304 241.941 219.791ZM246.46 217.368H245.73C245.382 217.368 245.081 217.258 244.826 217.037C244.594 216.793 244.478 216.506 244.478 216.174V208.211C244.478 207.879 244.594 207.602 244.826 207.381C245.081 207.138 245.382 207.016 245.73 207.016H246.46C246.807 207.016 247.109 207.138 247.363 207.381C247.618 207.602 247.746 207.879 247.746 208.211V216.174C247.746 216.506 247.618 216.793 247.363 217.037C247.109 217.258 246.807 217.368 246.46 217.368Z" stroke="#33475B" stroke-width="2" mask="url(#path-1-outside-1_459_229)"/>
<path d="M253.119 198.058V220.487H256.352V207.049H259.723L260.453 203.93H256.352V199.949C256.352 199.639 256.468 199.374 256.699 199.153C256.954 198.909 257.255 198.788 257.603 198.788H258.368C258.715 198.788 259.005 198.909 259.237 199.153C259.492 199.374 259.619 199.639 259.619 199.949V200.977L262.852 201.641V198.058C262.852 197.394 262.608 196.83 262.122 196.365C261.635 195.901 261.044 195.669 260.349 195.669H255.587C254.915 195.669 254.336 195.901 253.849 196.365C253.362 196.83 253.119 197.394 253.119 198.058Z" stroke="#33475B" stroke-width="2" mask="url(#path-1-outside-1_459_229)"/>
</svg>
